<svg width="200" height="201" viewBox="0 0 200 201" fill="none" xmlns="http://www.w3.org/2000/svg">
<path d="M200 0.523438H0V200.523H200V0.523438Z" fill="url(#paint0_linear)"/>
<g clip-path="url(#clip0)">
<path d="M137.779 107.15C137.439 107.746 137.156 108.372 136.933 109.021C136.703 109.674 136.551 110.353 136.483 111.042L107.418 99.8442C107.804 99.2722 108.133 98.6639 108.4 98.028C108.666 97.3917 108.858 96.7274 108.974 96.0479L137.779 107.15Z" fill="#FFD45D"/>
<path d="M149.228 94.2316C149.228 94.8654 148.976 95.4733 148.528 95.9215C148.081 96.3697 147.473 96.6214 146.84 96.6214H117.584L109.165 93.4805C109.167 93.0598 109.135 92.6397 109.069 92.2242C109.056 92.094 109.029 91.9658 108.987 91.8418H146.84C147.472 91.8454 148.077 92.0983 148.524 92.5457C148.971 92.9931 149.224 93.5989 149.228 94.2316Z" fill="white"/>
<path d="M71.5851 109.977L65.9495 114.757H54.8967C54.2634 114.757 53.656 114.505 53.2082 114.057C52.7604 113.609 52.5088 113.001 52.5088 112.367C52.5088 111.733 52.7604 111.125 53.2082 110.677C53.656 110.229 54.2634 109.977 54.8967 109.977H71.5851Z" fill="white"/>
<path d="M128.637 110.947L128.555 110.96L109.383 114.757H80.7007L86.3363 109.977H126.031L128.637 110.947Z" fill="white"/>
<path d="M63.6026 150.823H54.8967C54.2634 150.823 53.656 150.571 53.2082 150.123C52.7604 149.674 52.5088 149.067 52.5088 148.433C52.5088 147.799 52.7604 147.191 53.2082 146.743C53.656 146.295 54.2634 146.043 54.8967 146.043H60.1912L61.3101 147.627L63.6026 150.823Z" fill="white"/>
<path d="M149.228 148.433C149.224 149.066 148.971 149.671 148.524 150.119C148.077 150.566 147.472 150.819 146.84 150.823H136.224C136.404 150.048 136.496 149.255 136.496 148.46C136.501 147.939 136.464 147.419 136.387 146.903C136.351 146.612 136.291 146.325 136.21 146.043H146.84C147.473 146.043 148.08 146.295 148.528 146.743C148.976 147.191 149.228 147.799 149.228 148.433Z" fill="white"/>
<path d="M71.2304 168.466C71.2685 168.757 71.3277 169.045 71.4077 169.327H54.8967C54.2634 169.327 53.656 169.075 53.2082 168.627C52.7604 168.179 52.5088 167.571 52.5088 166.937C52.5088 166.303 52.7604 165.695 53.2082 165.247C53.656 164.799 54.2634 164.547 54.8967 164.547H71.3942C71.0867 165.831 71.0311 167.162 71.2304 168.466Z" fill="white"/>
<path d="M149.228 166.896C149.228 167.53 148.977 168.138 148.529 168.586C148.081 169.034 147.474 169.286 146.84 169.286H91.5762C91.7567 168.511 91.8483 167.719 91.8491 166.923C91.8535 166.402 91.817 165.882 91.7399 165.366C91.7018 165.076 91.6425 164.788 91.5625 164.506H146.84C147.474 164.506 148.081 164.758 148.529 165.206C148.977 165.654 149.228 166.262 149.228 166.896Z" fill="white"/>
<path d="M76.8251 157.623C75.5855 158.229 74.4915 159.095 73.6184 160.164L66.9458 150.823L63.5344 146.043L58.8677 139.502C60.0864 138.941 61.1811 138.142 62.088 137.153L62.2381 137.057L62.3336 137.18L68.6378 146.029L72.0492 150.809L76.8251 157.623Z" fill="#FFD45D"/>
<path d="M60.1777 146.043L61.3103 147.627L60.1914 146.043H60.1777ZM63.8211 134.681V134.777H63.9439L63.8211 134.681ZM61.3103 147.627L63.5891 150.823L61.3103 147.627Z" fill="#FFD45D"/>
<path d="M91.8213 101.742L82.1194 109.936L76.4838 114.716L69.8521 120.342L66.5226 123.183L63.7935 125.463C63.5259 124.91 63.206 124.385 62.8383 123.893C62.3863 123.279 61.8693 122.716 61.2964 122.213L70.1386 114.702L75.7742 109.922L89.4197 98.3831C89.9849 99.6539 90.8019 100.797 91.8213 101.742Z" fill="#FFD45D"/>
<path d="M88.8603 96.6214H54.8967C54.2634 96.6214 53.656 96.3697 53.2082 95.9215C52.7604 95.4733 52.5088 94.8654 52.5088 94.2316C52.5088 93.5978 52.7604 92.9899 53.2082 92.5418C53.656 92.0936 54.2634 91.8418 54.8967 91.8418H88.6284C88.538 92.292 88.4832 92.7486 88.4646 93.2074C88.4577 93.2664 88.4577 93.326 88.4646 93.3849C88.4646 93.5625 88.4646 93.74 88.4646 93.9175C88.4794 94.3747 88.5205 94.8307 88.5874 95.2831V95.5153C88.6552 95.8893 88.7464 96.2588 88.8603 96.6214Z" fill="white"/>
<path d="M137.288 116.204H137.138L79.1176 127.675L70.4254 129.41L64.8035 130.516C64.8103 130.384 64.8103 130.252 64.8035 130.12C64.808 129.599 64.7714 129.078 64.6943 128.563V128.331L65.0218 128.044L65.4176 127.703L67.6827 125.777L80.605 123.224L86.0632 122.158L88.6149 121.653L108.878 117.652L123.438 114.77L133.399 112.804H133.508L135.719 113.623L136.47 113.896H136.647C136.682 114.169 136.737 114.438 136.811 114.702C136.925 115.216 137.085 115.719 137.288 116.204Z" fill="#FFD45D"/>
<path d="M116.82 143.885C116.738 144.049 116.67 144.213 116.602 144.377C116.506 144.623 116.411 144.882 116.329 145.128C116.247 145.374 116.233 145.442 116.192 145.606C116.154 145.727 116.122 145.85 116.097 145.975C116.097 146.22 115.988 146.466 115.947 146.726C115.94 146.812 115.94 146.899 115.947 146.985C115.947 147.267 115.919 147.554 115.865 147.845L108.469 145.988L64.012 134.736L63.9302 134.626C64.1343 134.221 64.3077 133.801 64.4487 133.37L69.1428 132.441L70.5073 132.168L71.5853 132.441L82.9246 135.309L116.82 143.885Z" fill="#FFD45D"/>
<path d="M115.947 150.823H75.3376L71.9263 146.043H97.1704L100.2 146.808L115.947 150.823Z" fill="white"/>
<path d="M126.167 156.094C130.395 156.094 133.822 152.664 133.822 148.433C133.822 144.202 130.395 140.772 126.167 140.772C121.94 140.772 118.512 144.202 118.512 148.433C118.512 152.664 121.94 156.094 126.167 156.094Z" fill="#FFD45D"/>
<path d="M81.492 174.557C85.7198 174.557 89.1471 171.127 89.1471 166.896C89.1471 162.665 85.7198 159.235 81.492 159.235C77.2642 159.235 73.8369 162.665 73.8369 166.896C73.8369 171.127 77.2642 174.557 81.492 174.557Z" fill="#FFD45D"/>
<path d="M61.1736 131.335C60.8294 133.188 59.8159 134.85 58.3263 136.003C56.8366 137.156 54.9751 137.721 53.0964 137.588C51.2177 137.456 49.4533 136.637 48.1395 135.286C46.8257 133.936 46.0544 132.149 45.9726 130.266C45.8908 128.383 46.5042 126.536 47.6959 125.076C48.8876 123.617 50.5743 122.647 52.4344 122.352C54.2946 122.057 56.1981 122.458 57.7821 123.477C59.3661 124.497 60.5199 126.064 61.0236 127.88C61.1191 128.178 61.1876 128.485 61.2283 128.795C61.3541 129.639 61.3356 130.498 61.1736 131.335Z" fill="#FFD45D"/>
<path d="M149.228 130.092C149.224 130.725 148.971 131.331 148.524 131.778C148.077 132.226 147.472 132.479 146.84 132.482H82.6105L76.6475 130.98L93.1721 127.716H146.84C147.471 127.716 148.076 127.966 148.523 128.411C148.971 128.857 149.224 129.461 149.228 130.092Z" fill="white"/>
<path d="M147.331 119.823C151.559 119.823 154.986 116.393 154.986 112.162C154.986 107.931 151.559 104.501 147.331 104.501C143.104 104.501 139.676 107.931 139.676 112.162C139.676 116.393 143.104 119.823 147.331 119.823Z" fill="#FFD45D"/>
<path d="M98.7669 101.893C102.995 101.893 106.422 98.4627 106.422 94.2316C106.422 90.0005 102.995 86.5706 98.7669 86.5706C94.5391 86.5706 91.1118 90.0005 91.1118 94.2316C91.1118 98.4627 94.5391 101.893 98.7669 101.893Z" fill="#FFD45D"/>
</g>
<path d="M86.5481 21.2484H78.2641V44.5234H73.1531V21.2484H64.8691V17.0494H86.5481V21.2484ZM112.544 17.0494V44.5234H109.922C109.517 44.5234 109.175 44.4601 108.896 44.3334C108.63 44.1941 108.371 43.9661 108.117 43.6494L93.7722 25.3334C93.8482 26.1694 93.8862 26.9421 93.8862 27.6514V44.5234H89.3832V17.0494H92.0622C92.2776 17.0494 92.4612 17.0621 92.6132 17.0874C92.7779 17.1001 92.9172 17.1381 93.0312 17.2014C93.1579 17.2521 93.2782 17.3344 93.3922 17.4484C93.5062 17.5498 93.6329 17.6891 93.7722 17.8664L108.174 36.2584C108.136 35.8151 108.105 35.3781 108.079 34.9474C108.054 34.5168 108.041 34.1178 108.041 33.7504V17.0494H112.544ZM123.033 21.1154V28.7344H132.647V32.6674H123.033V40.4384H135.231V44.5234H117.903V17.0494H135.231V21.1154H123.033ZM91.542 61.4434C91.542 62.5368 91.3787 63.5301 91.052 64.4234C90.7254 65.3101 90.2654 66.0701 89.672 66.7034C89.0787 67.3301 88.3654 67.8168 87.532 68.1634C86.7054 68.5034 85.792 68.6734 84.792 68.6734C83.792 68.6734 82.8787 68.5034 82.052 68.1634C81.2254 67.8168 80.5154 67.3301 79.922 66.7034C79.3287 66.0701 78.8687 65.3101 78.542 64.4234C78.2154 63.5301 78.052 62.5368 78.052 61.4434C78.052 60.3568 78.2154 59.3701 78.542 58.4834C78.8687 57.5901 79.3287 56.8301 79.922 56.2034C80.5154 55.5701 81.2254 55.0801 82.052 54.7334C82.8787 54.3868 83.792 54.2134 84.792 54.2134C85.792 54.2134 86.7054 54.3868 87.532 54.7334C88.3654 55.0734 89.0787 55.5601 89.672 56.1934C90.2654 56.8268 90.7254 57.5901 91.052 58.4834C91.3787 59.3701 91.542 60.3568 91.542 61.4434ZM90.482 61.4434C90.482 60.4568 90.3454 59.5701 90.072 58.7834C89.7987 57.9968 89.412 57.3301 88.912 56.7834C88.412 56.2368 87.812 55.8201 87.112 55.5334C86.412 55.2401 85.6387 55.0934 84.792 55.0934C83.952 55.0934 83.182 55.2401 82.482 55.5334C81.782 55.8201 81.1787 56.2368 80.672 56.7834C80.172 57.3301 79.782 57.9968 79.502 58.7834C79.2287 59.5701 79.092 60.4568 79.092 61.4434C79.092 62.4368 79.2287 63.3268 79.502 64.1134C79.782 64.8934 80.172 65.5568 80.672 66.1034C81.1787 66.6501 81.782 67.0668 82.482 67.3534C83.182 67.6401 83.952 67.7834 84.792 67.7834C85.6387 67.7834 86.412 67.6401 87.112 67.3534C87.812 67.0668 88.412 66.6501 88.912 66.1034C89.412 65.5568 89.7987 64.8934 90.072 64.1134C90.3454 63.3268 90.482 62.4368 90.482 61.4434ZM107.562 61.4434C107.562 62.5368 107.399 63.5301 107.072 64.4234C106.746 65.3101 106.286 66.0701 105.692 66.7034C105.099 67.3301 104.386 67.8168 103.552 68.1634C102.726 68.5034 101.812 68.6734 100.812 68.6734C99.8123 68.6734 98.899 68.5034 98.0723 68.1634C97.2457 67.8168 96.5357 67.3301 95.9423 66.7034C95.349 66.0701 94.889 65.3101 94.5623 64.4234C94.2357 63.5301 94.0723 62.5368 94.0723 61.4434C94.0723 60.3568 94.2357 59.3701 94.5623 58.4834C94.889 57.5901 95.349 56.8301 95.9423 56.2034C96.5357 55.5701 97.2457 55.0801 98.0723 54.7334C98.899 54.3868 99.8123 54.2134 100.812 54.2134C101.812 54.2134 102.726 54.3868 103.552 54.7334C104.386 55.0734 105.099 55.5601 105.692 56.1934C106.286 56.8268 106.746 57.5901 107.072 58.4834C107.399 59.3701 107.562 60.3568 107.562 61.4434ZM106.502 61.4434C106.502 60.4568 106.366 59.5701 106.092 58.7834C105.819 57.9968 105.432 57.3301 104.932 56.7834C104.432 56.2368 103.832 55.8201 103.132 55.5334C102.432 55.2401 101.659 55.0934 100.812 55.0934C99.9723 55.0934 99.2023 55.2401 98.5023 55.5334C97.8023 55.8201 97.199 56.2368 96.6923 56.7834C96.1923 57.3301 95.8023 57.9968 95.5223 58.7834C95.249 59.5701 95.1123 60.4568 95.1123 61.4434C95.1123 62.4368 95.249 63.3268 95.5223 64.1134C95.8023 64.8934 96.1923 65.5568 96.6923 66.1034C97.199 66.6501 97.8023 67.0668 98.5023 67.3534C99.2023 67.6401 99.9723 67.7834 100.812 67.7834C101.659 67.7834 102.432 67.6401 103.132 67.3534C103.832 67.0668 104.432 66.6501 104.932 66.1034C105.432 65.5568 105.819 64.8934 106.092 64.1134C106.366 63.3268 106.502 62.4368 106.502 61.4434ZM122.933 61.4434C122.933 62.5368 122.769 63.5201 122.443 64.3934C122.116 65.2668 121.656 66.0101 121.063 66.6234C120.469 67.2368 119.756 67.7068 118.923 68.0334C118.096 68.3601 117.183 68.5234 116.183 68.5234H111.013V54.3734H116.183C117.183 54.3734 118.096 54.5368 118.923 54.8634C119.756 55.1901 120.469 55.6601 121.063 56.2734C121.656 56.8868 122.116 57.6301 122.443 58.5034C122.769 59.3768 122.933 60.3568 122.933 61.4434ZM121.873 61.4434C121.873 60.4568 121.736 59.5768 121.463 58.8034C121.189 58.0301 120.803 57.3768 120.303 56.8434C119.803 56.3101 119.203 55.9034 118.503 55.6234C117.803 55.3434 117.029 55.2034 116.183 55.2034H112.043V67.6934H116.183C117.029 67.6934 117.803 67.5534 118.503 67.2734C119.203 66.9934 119.803 66.5868 120.303 66.0534C120.803 65.5201 121.189 64.8668 121.463 64.0934C121.736 63.3201 121.873 62.4368 121.873 61.4434Z" fill="white"/>
<defs>
<linearGradient id="paint0_linear" x1="100" y1="0.523438" x2="223.011" y2="179.043" gradientUnits="userSpaceOnUse">
<stop stop-color="#706F6F"/>
<stop offset="1" stop-color="#3F3F3F"/>
</linearGradient>
<clipPath id="clip0">
<rect width="109" height="88" fill="white" transform="translate(46 86.5706)"/>
</clipPath>
</defs>
</svg>
