<svg width="200" height="200" viewBox="0 0 200 200" fill="none" xmlns="http://www.w3.org/2000/svg">
<path d="M200 0H0V200H200V0Z" fill="url(#paint0_linear)"/>
<g clip-path="url(#clip0)">
<path d="M137.779 106.58C137.439 107.175 137.156 107.802 136.933 108.451C136.703 109.104 136.551 109.782 136.483 110.472L107.418 99.2737C107.804 98.7016 108.133 98.0933 108.4 97.4574C108.666 96.8212 108.858 96.1569 108.974 95.4773L137.779 106.58Z" fill="#FFD45D"/>
<path d="M149.228 93.6611C149.228 94.2949 148.976 94.9027 148.528 95.3509C148.081 95.7991 147.473 96.0509 146.84 96.0509H117.584L109.165 92.91C109.167 92.4893 109.135 92.0691 109.069 91.6536C109.056 91.5235 109.029 91.3952 108.987 91.2712H146.84C147.472 91.2748 148.077 91.5278 148.524 91.9752C148.971 92.4226 149.224 93.0283 149.228 93.6611Z" fill="white"/>
<path d="M71.5851 109.406L65.9495 114.186H54.8967C54.2634 114.186 53.656 113.934 53.2082 113.486C52.7604 113.038 52.5088 112.43 52.5088 111.796C52.5088 111.162 52.7604 110.555 53.2082 110.106C53.656 109.658 54.2634 109.406 54.8967 109.406H71.5851Z" fill="white"/>
<path d="M128.637 110.376L128.555 110.39L109.383 114.186H80.7007L86.3363 109.406H126.031L128.637 110.376Z" fill="white"/>
<path d="M63.6026 150.252H54.8967C54.2634 150.252 53.656 150 53.2082 149.552C52.7604 149.104 52.5088 148.496 52.5088 147.862C52.5088 147.228 52.7604 146.621 53.2082 146.172C53.656 145.724 54.2634 145.472 54.8967 145.472H60.1912L61.3101 147.057L63.6026 150.252Z" fill="white"/>
<path d="M149.228 147.862C149.224 148.495 148.971 149.101 148.524 149.548C148.077 149.996 147.472 150.248 146.84 150.252H136.224C136.404 149.478 136.496 148.685 136.496 147.89C136.501 147.369 136.464 146.848 136.387 146.333C136.351 146.042 136.291 145.754 136.21 145.472H146.84C147.473 145.472 148.08 145.724 148.528 146.172C148.976 146.621 149.228 147.228 149.228 147.862Z" fill="white"/>
<path d="M71.2304 167.896C71.2685 168.187 71.3277 168.474 71.4077 168.756H54.8967C54.2634 168.756 53.656 168.504 53.2082 168.056C52.7604 167.608 52.5088 167 52.5088 166.366C52.5088 165.733 52.7604 165.125 53.2082 164.677C53.656 164.228 54.2634 163.977 54.8967 163.977H71.3942C71.0867 165.26 71.0311 166.591 71.2304 167.896Z" fill="white"/>
<path d="M149.228 166.325C149.228 166.959 148.977 167.567 148.529 168.015C148.081 168.463 147.474 168.715 146.84 168.715H91.5762C91.7567 167.941 91.8483 167.148 91.8491 166.353C91.8535 165.832 91.817 165.311 91.7399 164.796C91.7018 164.505 91.6425 164.218 91.5625 163.936H146.84C147.474 163.936 148.081 164.187 148.529 164.636C148.977 165.084 149.228 165.692 149.228 166.325Z" fill="white"/>
<path d="M76.8251 157.053C75.5855 157.658 74.4915 158.524 73.6184 159.593L66.9458 150.252L63.5344 145.472L58.8677 138.931C60.0864 138.37 61.1811 137.571 62.088 136.582L62.2381 136.487L62.3336 136.609L68.6378 145.459L72.0492 150.238L76.8251 157.053Z" fill="#FFD45D"/>
<path d="M60.1777 145.472L61.3103 147.056L60.1914 145.472H60.1777ZM63.8211 134.11V134.206H63.9439L63.8211 134.11ZM61.3103 147.056L63.5891 150.252L61.3103 147.056Z" fill="#FFD45D"/>
<path d="M91.8213 101.172L82.1194 109.366L76.4838 114.145L69.8521 119.772L66.5226 122.612L63.7935 124.893C63.5259 124.34 63.206 123.814 62.8383 123.322C62.3863 122.708 61.8693 122.145 61.2964 121.642L70.1386 114.132L75.7742 109.352L89.4197 97.8125C89.9849 99.0833 90.8019 100.226 91.8213 101.172Z" fill="#FFD45D"/>
<path d="M88.8603 96.0509H54.8967C54.2634 96.0509 53.656 95.7991 53.2082 95.3509C52.7604 94.9027 52.5088 94.2949 52.5088 93.6611C52.5088 93.0272 52.7604 92.4194 53.2082 91.9712C53.656 91.523 54.2634 91.2712 54.8967 91.2712H88.6284C88.538 91.7214 88.4832 92.178 88.4646 92.6369C88.4577 92.6958 88.4577 92.7554 88.4646 92.8144C88.4646 92.9919 88.4646 93.1694 88.4646 93.347C88.4794 93.8042 88.5205 94.2601 88.5874 94.7126V94.9447C88.6552 95.3188 88.7464 95.6882 88.8603 96.0509Z" fill="white"/>
<path d="M137.288 115.634H137.138L79.1176 127.105L70.4254 128.839L64.8035 129.945C64.8103 129.813 64.8103 129.681 64.8035 129.549C64.808 129.028 64.7714 128.508 64.6943 127.993V127.76L65.0218 127.474L65.4176 127.132L67.6827 125.207L80.605 122.653L86.0632 121.588L88.6149 121.083L108.878 117.081L123.438 114.2L133.399 112.233H133.508L135.719 113.053L136.47 113.326H136.647C136.682 113.598 136.737 113.867 136.811 114.132C136.925 114.645 137.085 115.148 137.288 115.634Z" fill="#FFD45D"/>
<path d="M116.82 143.315C116.738 143.478 116.67 143.642 116.602 143.806C116.506 144.052 116.411 144.312 116.329 144.557C116.247 144.803 116.233 144.871 116.192 145.035C116.154 145.156 116.122 145.28 116.097 145.404C116.097 145.65 115.988 145.896 115.947 146.155C115.94 146.241 115.94 146.328 115.947 146.415C115.947 146.697 115.919 146.984 115.865 147.275L108.469 145.418L64.012 134.165L63.9302 134.056C64.1343 133.651 64.3077 133.231 64.4487 132.799L69.1428 131.871L70.5073 131.598L71.5853 131.871L82.9246 134.739L116.82 143.315Z" fill="#FFD45D"/>
<path d="M115.947 150.252H75.3376L71.9263 145.472H97.1704L100.2 146.237L115.947 150.252Z" fill="white"/>
<path d="M126.167 155.523C130.395 155.523 133.822 152.093 133.822 147.862C133.822 143.631 130.395 140.201 126.167 140.201C121.94 140.201 118.512 143.631 118.512 147.862C118.512 152.093 121.94 155.523 126.167 155.523Z" fill="#FFD45D"/>
<path d="M81.492 173.986C85.7198 173.986 89.1471 170.556 89.1471 166.325C89.1471 162.094 85.7198 158.664 81.492 158.664C77.2642 158.664 73.8369 162.094 73.8369 166.325C73.8369 170.556 77.2642 173.986 81.492 173.986Z" fill="#FFD45D"/>
<path d="M61.1736 130.765C60.8294 132.618 59.8159 134.279 58.3263 135.432C56.8366 136.586 54.9751 137.15 53.0964 137.018C51.2177 136.886 49.4533 136.066 48.1395 134.716C46.8257 133.365 46.0544 131.578 45.9726 129.695C45.8908 127.812 46.5042 125.965 47.6959 124.506C48.8876 123.046 50.5743 122.077 52.4344 121.782C54.2946 121.487 56.1981 121.887 57.7821 122.907C59.3661 123.926 60.5199 125.494 61.0236 127.31C61.1191 127.608 61.1876 127.914 61.2283 128.225C61.3541 129.068 61.3356 129.927 61.1736 130.765Z" fill="#FFD45D"/>
<path d="M149.228 129.522C149.224 130.155 148.971 130.76 148.524 131.208C148.077 131.655 147.472 131.908 146.84 131.912H82.6105L76.6475 130.41L93.1721 127.146H146.84C147.471 127.146 148.076 127.396 148.523 127.841C148.971 128.286 149.224 128.89 149.228 129.522Z" fill="white"/>
<path d="M147.331 119.253C151.559 119.253 154.986 115.823 154.986 111.591C154.986 107.36 151.559 103.93 147.331 103.93C143.104 103.93 139.676 107.36 139.676 111.591C139.676 115.823 143.104 119.253 147.331 119.253Z" fill="#FFD45D"/>
<path d="M98.7669 101.322C102.995 101.322 106.422 97.8922 106.422 93.6611C106.422 89.43 102.995 86 98.7669 86C94.5391 86 91.1118 89.43 91.1118 93.6611C91.1118 97.8922 94.5391 101.322 98.7669 101.322Z" fill="#FFD45D"/>
</g>
<path d="M86.5624 30.95H78.7144V53H73.8724V30.95H66.0244V26.972H86.5624V30.95ZM111.91 26.972V53H109.426C109.042 53 108.718 52.94 108.454 52.82C108.202 52.688 107.956 52.472 107.716 52.172L94.1263 34.82C94.1983 35.612 94.2343 36.344 94.2343 37.016V53H89.9683V26.972H92.5063C92.7103 26.972 92.8843 26.984 93.0283 27.008C93.1843 27.02 93.3163 27.056 93.4243 27.116C93.5443 27.164 93.6583 27.242 93.7663 27.35C93.8743 27.446 93.9943 27.578 94.1263 27.746L107.77 45.17C107.734 44.75 107.704 44.336 107.68 43.928C107.656 43.52 107.644 43.142 107.644 42.794V26.972H111.91ZM122.567 30.824V38.042H131.675V41.768H122.567V49.13H134.123V53H117.707V26.972H134.123V30.824H122.567Z" fill="white"/>
<defs>
<linearGradient id="paint0_linear" x1="100" y1="0" x2="223.011" y2="178.519" gradientUnits="userSpaceOnUse">
<stop stop-color="#2D5A83"/>
<stop offset="1" stop-color="#1C4369"/>
</linearGradient>
<clipPath id="clip0">
<rect width="109" height="88" fill="white" transform="translate(46 86)"/>
</clipPath>
</defs>
</svg>
